# xmcd CD database file
#
# Track frame offsets:
#	150
#	15324
#	30089
#	48185
#	66945
#	84938
#	106376
#	123401
#	138109
#	153689
#	167075
#	182726
#	195111
#	209535
#
# Disc length: 3007 seconds
#
# Revision: 0
# Processed by: cddbd v1.5.1PL2 Copyright (c) Steve Scherf et al.
# Submitted via: CDex 1.51
#
DISCID=a80bbd0e
DTITLE=Lisa Hilton - My Favorite Things
DYEAR=2005
DGENRE=Jazz
TTITLE0=Lets Go!
TTITLE1=My Favorite Things
TTITLE2=Take Five
TTITLE3=Midnight Sky
TTITLE4=Alice In Wonderland
TTITLE5=Desafinado
TTITLE6=Baja Nights
TTITLE7=Alfie
TTITLE8=Clearly
TTITLE9=Seduction Remix
TTITLE10=So This Is Love
TTITLE11=They Can't Take That Away From Me
TTITLE12=Thinking Of You
TTITLE13=Changes
EXTD=YEAR: 2005
EXTT0=
EXTT1=
EXTT2=
EXTT3=
EXTT4=
EXTT5=
EXTT6=
EXTT7=
EXTT8=
EXTT9=
EXTT10=
EXTT11=
EXTT12=
EXTT13=
PLAYORDER=
